<svg width="640" height="480" xmlns="http://www.w3.org/2000/svg" xmlns:svg="http://www.w3.org/2000/svg">
 <!-- Created with SVG-edit - http://svg-edit.googlecode.com/ -->
 <g>
  <title>Layer 1</title>
  <path d="m175,166c-0.66451,-4.40733 -0.85152,-5.02682 -1.0715,-5.68134c-0.23178,-0.68961 -0.48804,-1.40309 -0.7605,-2.136c-0.27847,-0.74913 -0.56622,-1.50629 -1.168,-3.01599c-0.29749,-0.74632 -0.59885,-1.48296 -0.909,-2.2095c-0.30855,-0.72281 -0.62698,-1.43901 -0.963,-2.1465c-0.33667,-0.70888 -0.67641,-1.42168 -1.46133,-2.81067c-0.39912,-0.70628 -0.83307,-1.40504 -1.29901,-2.0955c-0.47269,-0.70044 -0.98161,-1.39253 -1.53299,-2.0685c-0.56123,-0.68805 -1.14397,-1.38641 -2.50134,-2.66933c-0.7027,-0.66415 -1.47185,-1.29366 -2.2845,-1.9095c-0.83659,-0.63399 -1.72887,-1.24794 -2.67149,-1.84651c-0.9736,-0.61824 -1.99303,-1.2397 -4.21066,-2.41066c-1.16583,-0.61559 -2.3886,-1.20622 -3.65251,-1.7865c-1.2894,-0.59196 -2.6138,-1.16214 -3.9675,-1.70551c-1.36469,-0.54778 -2.74001,-1.09184 -5.54666,-2.008c-1.39349,-0.45486 -2.79504,-0.85373 -4.1955,-1.215c-1.3904,-0.35867 -2.78088,-0.67393 -4.1685,-0.94501c-1.37619,-0.26884 -2.74536,-0.52264 -5.46934,-0.84c-1.34221,-0.15638 -2.67533,-0.25421 -3.9915,-0.324c-1.29594,-0.06871 -2.57092,-0.10169 -3.8205,-0.108c-1.22149,-0.00616 -2.41273,0.00211 -4.688,0.09866c-1.08092,0.04587 -2.12449,0.1137 -3.1335,0.195c-0.97901,0.07889 -1.92974,0.1737 -2.8545,0.285c-0.90426,0.10884 -1.791,0.22212 -3.512,0.52c-0.84673,0.14655 -1.6832,0.31429 -2.5095,0.50401c-0.82313,0.189 -1.6395,0.40202 -2.4465,0.64799c-0.80948,0.24672 -1.62441,0.5023 -3.21067,1.18134c-0.80861,0.34615 -1.60728,0.74965 -2.4135,1.17149c-0.82191,0.43005 -1.64942,0.89026 -2.4945,1.3605c-0.86393,0.48074 -1.73962,0.98769 -3.592,1.968c-0.95989,0.508 -1.95131,1.00281 -2.9625,1.4955c-1.02213,0.49802 -2.05718,0.98615 -3.0975,1.46851c-1.03802,0.48131 -2.07249,0.95255 -4.10667,1.86932c-0.98943,0.44592 -1.95873,0.87987 -2.9055,1.30501c-0.9239,0.41486 -1.82401,0.81926 -2.6985,1.215c-0.84916,0.38428 -1.67287,0.75523 -3.22933,1.48c-0.73572,0.34259 -1.43822,0.67682 -2.106,1.0005c-0.63352,0.30708 -1.22846,0.60144 -1.782,0.8835c-0.51373,0.26178 -0.98717,0.50023 -1.77867,0.94934c-0.32814,0.18619 -0.60926,0.35829 -0.843,0.5235c-0.2032,0.14362 -0.37215,0.2825 -0.501,0.4245c-0.1161,0.12794 -0.21651,0.26028 -0.32267,0.552c-0.05542,0.1523 -0.08588,0.32471 -0.1095,0.513c-0.02623,0.20908 -0.03868,0.44525 -0.0465,0.711c-0.00881,0.29961 -0.01028,0.63733 -0.01067,1.44266c-0.00023,0.47467 0.00011,0.99738 0.009,1.56601c0.00958,0.6127 0.02778,1.26756 0.063,1.96199c0.03717,0.73294 0.07666,1.50368 0.26133,3.13867c0.09786,0.86639 0.23296,1.76047 0.3765,2.685c0.14835,0.95549 0.31235,1.93979 0.4755,2.955c0.1679,1.04477 0.34972,2.11757 0.648,4.36c0.1547,1.16298 0.28531,2.3532 0.4185,3.5625c0.13482,1.22403 0.26506,2.45879 0.4095,3.69749c0.14455,1.23964 0.27601,2.47835 0.672,4.90668c0.19449,1.19266 0.42812,2.36299 0.6945,3.50999c0.26315,1.1331 0.56154,2.24452 0.9015,3.33c0.33658,1.07466 0.68115,2.14053 1.57066,4.16c0.44086,1.0009 0.94431,1.96776 1.4715,2.91449c0.52494,0.9427 1.08353,1.86108 1.66051,2.76151c0.5741,0.89595 1.16335,1.77538 2.368,3.49066c0.59591,0.84851 1.2001,1.68489 1.8045,2.51851c0.60495,0.83438 1.21629,1.66902 1.8315,2.50949c0.62112,0.84854 1.25329,1.70514 2.53066,3.472c0.65671,0.90837 1.31997,1.83681 1.986,2.78551c0.67535,0.96196 1.35124,1.94102 2.022,2.93849c0.67662,1.00618 1.35769,2.0204 2.65867,4.10934c0.65376,1.04973 1.2859,2.11754 1.9185,3.19049c0.63541,1.07771 1.26691,2.1649 1.9095,3.25351c0.6464,1.09506 1.28871,2.20274 2.672,4.38933c0.70013,1.10669 1.43495,2.20651 2.1855,3.31351c0.76008,1.12105 1.54317,2.24934 2.33849,3.39449c0.80833,1.16386 1.63982,2.34175 3.30933,4.79201c0.85906,1.2608 1.71811,2.54974 2.577,3.858c0.86379,1.31572 1.71832,2.63968 2.559,3.966c0.83396,1.3157 1.65569,2.6161 3.19733,5.17599c0.74129,1.2309 1.44358,2.43527 2.115,3.60599c0.64847,1.13071 1.26268,2.22586 1.845,3.28201c0.55757,1.01126 1.0849,1.97873 2.04,3.77866c0.43758,0.82465 0.84516,1.60541 1.224,2.3475c0.35971,0.70462 0.69617,1.38 1.008,2.0325c0.30071,0.62921 0.59139,1.24124 1.10133,2.45334c0.25146,0.59772 0.48537,1.20117 0.7095,1.80899c0.22523,0.61084 0.43988,1.23151 0.6465,1.86301c0.20978,0.64117 0.41758,1.29626 0.81067,2.66135c0.20396,0.70828 0.40144,1.43494 0.591,2.17648c0.19183,0.75043 0.37327,1.50974 0.53699,2.27551c0.16361,0.76523 0.32763,1.52811 0.53867,3.048c0.10323,0.74347 0.16943,1.48083 0.219,2.2095c0.04903,0.72073 0.07664,1.43622 0.093,2.14648c0.01627,0.70609 0.02,1.40933 0.02133,2.81067c0.00066,0.70001 0,1.39999 0,2.10001c0,0.69998 0,1.39999 0,2.10001c0,0.69998 0.0005,1.39999 0,2.79999c-0.00025,0.69949 0.00063,1.39609 -0.0135,2.08649c-0.01394,0.68164 -0.03918,1.35178 -0.09451,2.00552c-0.05394,0.63736 -0.09624,1.26413 -0.392,2.40799c-0.14011,0.54184 -0.34115,1.0463 -0.567,1.51501c-0.21749,0.45139 -0.46531,0.86633 -0.729,1.245c-0.25156,0.36124 -0.5054,0.69638 -1.03734,1.23999c-0.23784,0.24307 -0.47814,0.44983 -0.714,0.62851c-0.22319,0.1691 -0.44983,0.31403 -0.678,0.43948c-0.22465,0.1235 -0.45602,0.23438 -0.94133,0.43201c-0.25383,0.10336 -0.52064,0.202 -0.7995,0.29999c-0.29045,0.10208 -0.59566,0.20218 -0.9165,0.30002c-0.33548,0.10229 -0.68765,0.20648 -1.45067,0.39999c-0.40863,0.10364 -0.83604,0.20114 -1.2765,0.3045c-0.45155,0.10599 -0.91165,0.21375 -1.3755,0.33148c-0.46717,0.11859 -0.93723,0.23288 -1.848,0.53067c-0.44788,0.14645 -0.88197,0.31436 -1.30949,0.48151c-0.42181,0.16489 -0.83524,0.33386 -1.24651,0.49051c-0.40511,0.1543 -0.80215,0.3179 -1.61066,0.52798c-0.39706,0.10318 -0.80041,0.16974 -1.2045,0.21902c-0.40536,0.04944 -0.81615,0.07675 -1.2315,0.09299c-0.42103,0.01648 -0.84933,0.02032 -1.73067,0.02133c-0.45567,0.00052 -0.92538,0.00006 -1.413,-0.009c-0.50973,-0.00949 -1.04561,-0.02786 -1.611,-0.06299c-0.60001,-0.03726 -1.23955,-0.08054 -2.64267,-0.26135c-0.77719,-0.10016 -1.6076,-0.23599 -2.4975,-0.3945c-0.95687,-0.17041 -1.98255,-0.37201 -3.0825,-0.6015c-1.18181,-0.24655 -2.44878,-0.52017 -5.25333,-1.17065c-1.54836,-0.35913 -3.17769,-0.75186 -4.8735,-1.16251c-1.74553,-0.42267 -3.52239,-0.85809 -5.3145,-1.29749c-1.79023,-0.43893 -3.56046,-0.87695 -6.97867,-1.70667c-1.61375,-0.39172 -3.15337,-0.75983 -4.6125,-1.11002c-1.37421,-0.3298 -2.65888,-0.63773 -3.8475,-0.92999c-1.08967,-0.26791 -2.07902,-0.49939 -3.70667,-0.95999c-0.64452,-0.1824 -1.18097,-0.35431 -1.6185,-0.5235c-0.36336,-0.1405 -0.658,-0.27951 -0.8895,-0.4245c-0.20041,-0.12552 -0.36532,-0.26389 -0.65867,-0.552c-0.15716,-0.15436 -0.3256,-0.3273 -0.495,-0.53552c-0.19148,-0.23535 -0.38913,-0.52167 -0.585,-0.8685c-0.22568,-0.39963 -0.46915,-0.87286 -0.92,-2.09598c-0.27332,-0.74152 -0.52404,-1.58267 -0.8085,-2.49152c-0.30354,-0.96982 -0.61995,-1.99072 -0.9795,-3.0405c-0.36924,-1.07803 -0.72567,-2.18661 -1.712,-4.30133c-0.49011,-1.05081 -1.06427,-2.06131 -1.698,-3.04199c-0.64358,-0.99594 -1.36803,-1.97211 -2.166,-2.93402c-0.827,-0.99692 -1.72245,-2.01141 -3.80267,-4.02399c-1.11841,-1.08203 -2.32682,-2.15039 -3.5745,-3.22198c-1.255,-1.07788 -2.52291,-2.11984 -3.7815,-3.11401c-1.21139,-0.95688 -2.3572,-1.86554 -4.47733,-3.33066c-0.88579,-0.61212 -1.68312,-1.10544 -2.3865,-1.50452c-0.60298,-0.34213 -1.13161,-0.60556 -1.5855,-0.81149c-0.38095,-0.17282 -0.71625,-0.27933 -1.19467,-0.51733c-0.18532,-0.09219 -0.33807,-0.19711 -0.438,-0.327c-0.09821,-0.12762 -0.15508,-0.29617 -0.186,-0.48901c-0.03615,-0.22543 -0.04,-0.49597 -0.04267,-1.18399c-0.00166,-0.42834 0,-0.90668 0,-1.42499c0,-0.54834 0,-1.11667 0,-1.69501l0,-0.57834l0,-0.56833" id="svg_2" stroke-width="5" stroke="#000000" fill="none"/>
  <path d="m196,165c1.83333,7.83333 1.98506,8.80817 2.116,9.83867c0.13809,1.08682 0.26204,2.23698 0.384,3.453c0.12891,1.28531 0.25331,2.64526 0.384,4.08299c0.28407,3.12521 0.43475,4.81947 0.60533,6.59601c0.17795,1.85316 0.37192,3.77541 0.59399,5.7585c0.22841,2.03963 0.4765,4.12785 0.774,6.25349c0.60957,4.35542 0.99628,6.56161 1.39867,8.78267c0.40456,2.23302 0.84381,4.4657 1.3065,6.69299c0.46133,2.22072 0.94246,4.42395 1.4415,6.60301c0.97925,4.27586 1.48999,6.35318 1.99733,8.38933c0.49713,1.99518 1.00053,3.94371 1.5195,5.841c0.50659,1.85202 1.01807,3.65295 1.5645,5.39099c1.04648,3.32851 1.62492,4.89233 2.19867,6.40401c0.55792,1.46996 1.13499,2.88931 1.716,4.2675c0.56847,1.34845 1.14644,2.66206 1.716,3.9525c1.11555,2.52747 1.66557,3.77142 2.2,5.01465c0.53424,1.24277 1.06216,2.49457 1.584,3.76202c0.52887,1.28452 1.05838,2.59576 1.584,3.94199c1.09456,2.80341 1.64211,4.28052 2.19867,5.80267c0.57057,1.56046 1.13876,3.16034 1.6965,4.797c0.56638,1.66202 1.12469,3.3504 1.65149,5.06699c1.06375,3.46628 1.53609,5.22668 1.996,6.992c0.46011,1.76608 0.88953,3.53918 1.29001,5.31601c0.39951,1.77255 0.77361,3.54471 1.11,5.31601c0.66702,3.5123 0.93661,5.25949 1.20132,6.98267c0.25949,1.68921 0.49242,3.33688 0.7095,4.93048c0.20813,1.52777 0.395,2.98053 0.57449,4.34552c0.31897,2.42563 0.46234,3.4671 0.60268,4.39465c0.12447,0.82275 0.24348,1.54645 0.3645,2.17651c0.1051,0.54715 0.20348,1.01788 0.31949,1.4115c0.18143,0.61554 0.29135,0.84103 0.40134,1.01599c0.09193,0.14624 0.19363,0.25589 0.3,0.32251c0.09508,0.05954 0.1992,0.08789 0.3,0.0975c0.1992,0.01901 0.3,0.00665 0.39999,0.00665c0.10001,0 0.2,0 0.3,0c0.10001,0 0.2,0 0.3,0c0.2,0 0.30099,0.00439 0.40399,-0.008c0.11035,-0.01328 0.23196,-0.04819 0.35851,-0.117c0.15076,-0.082 0.31688,-0.20978 0.4935,-0.38699c0.46573,-0.46732 0.71214,-0.81485 1.00267,-1.20267c0.32556,-0.43457 0.67171,-0.92194 1.0455,-1.452c0.40094,-0.56854 0.82227,-1.17566 1.27049,-1.81201c0.95569,-1.35678 1.46602,-2.0654 1.99467,-2.78799c0.53831,-0.73578 1.0892,-1.47543 1.65149,-2.21249c0.56172,-0.73633 1.12521,-1.46301 1.6965,-2.16751c1.10484,-1.36246 1.65758,-1.99265 2.2,-2.60001c0.53069,-0.59424 1.06544,-1.1691 1.6035,-1.73248c0.53796,-0.56329 1.08774,-1.12292 1.6485,-1.6875c1.16139,-1.16928 1.77684,-1.77487 2.40401,-2.41467c0.65297,-0.66611 1.32672,-1.36987 2.01001,-2.12701c0.7171,-0.79462 1.45551,-1.64554 2.19,-2.577c1.59412,-2.02158 2.38248,-3.18015 3.19998,-4.41199c0.86328,-1.30081 1.73288,-2.70038 2.61002,-4.19852c0.92365,-1.57758 1.85953,-3.25873 2.78998,-5.0535c2.00232,-3.86237 2.98245,-5.9826 3.99734,-8.19998c1.05704,-2.30945 2.1138,-4.72675 3.17099,-7.24652c1.09259,-2.60413 2.18613,-5.30371 3.26102,-8.1015c2.23645,-5.82111 3.30463,-8.87286 4.40399,-11.98932c1.12244,-3.18185 2.24408,-6.43423 3.39749,-9.74251c1.17322,-3.36508 2.36353,-6.78491 3.6225,-10.23749c2.56967,-7.04695 3.96362,-10.6015 5.39603,-14.16534c1.43295,-3.56526 2.9072,-7.09186 4.41898,-10.5555c1.48587,-3.40431 2.97574,-6.71304 4.509,-9.88049c2.88641,-5.96288 4.36206,-8.6559 5.78668,-11.18533c1.34799,-2.39342 2.68591,-4.62296 3.996,-6.705c1.24014,-1.97089 2.45697,-3.81036 3.63599,-5.535c2.17831,-3.18642 3.22055,-4.63477 4.19733,-6.01466c0.92331,-1.30438 1.80002,-2.52934 2.625,-3.6795l0.77502,-1.07516l0.72498,-1.00117l0.67502,-0.92816" id="svg_3" stroke-width="5" stroke="#000000" fill="none"/>
  <path d="m498,166c0,-1.87866 0,-2.63316 0,-3.66667c0,-0.87199 0,-1.85599 0,-2.375c0,-1.062 0,-1.593 0,-3.11516c0,-0.47118 0,-1.3605 0,-2.18584c0,-0.76933 0,-2.172 0,-2.82133c0,-0.9315 0.02277,-2.13728 -0.01349,-2.745c-0.05762,-0.96591 -0.18954,-1.6815 -0.65152,-2.83417c-0.17526,-0.43727 -0.66409,-1.34615 -0.95999,-1.81934c-0.6369,-1.01849 -1.01578,-1.54074 -1.875,-2.60417c-0.4548,-0.56291 -0.95255,-1.12302 -1.4805,-1.68599c-0.5426,-0.57858 -1.11758,-1.15375 -1.72351,-1.722c-0.61768,-0.57928 -1.2522,-1.16417 -2.62933,-2.25867c-0.70013,-0.55644 -1.4296,-1.08461 -2.172,-1.59601c-0.74036,-0.50998 -1.49026,-0.99452 -2.24399,-1.452c-0.74106,-0.44978 -1.47009,-0.88562 -2.91733,-1.61867c-0.68494,-0.34692 -1.36163,-0.65163 -2.02802,-0.924c-0.65112,-0.26614 -1.30249,-0.50143 -1.95599,-0.70801c-0.65195,-0.2061 -1.31253,-0.39969 -2.68268,-0.70132c-0.70816,-0.1559 -1.4429,-0.28696 -2.20349,-0.405c-0.78741,-0.12221 -1.60828,-0.22673 -2.46451,-0.315c-0.89279,-0.09204 -1.827,-0.17798 -3.832,-0.28c-1.0737,-0.05463 -2.19324,-0.08522 -3.35248,-0.10501c-1.19409,-0.02039 -2.41837,-0.02487 -3.66751,-0.015c-1.26923,0.01004 -2.55386,0.02498 -5.14667,0.12001c-1.29965,0.04764 -2.59509,0.11443 -3.88199,0.19949c-1.27579,0.08434 -2.53561,0.18709 -3.77402,0.3165c-1.21631,0.12709 -2.40918,0.25037 -4.67734,0.65067c-1.08377,0.19127 -2.12573,0.42639 -3.129,0.6855c-0.97546,0.25194 -1.9162,0.533 -2.823,0.8385c-0.88589,0.29845 -1.7493,0.60544 -3.38132,1.30934c-0.79587,0.34328 -1.56903,0.71423 -2.32352,1.10849c-0.75366,0.39381 -1.49545,0.81859 -2.22449,1.27951c-0.74026,0.46802 -1.4903,0.95918 -2.952,2.112c-0.76682,0.60478 -1.52542,1.2699 -2.2905,1.97099c-0.78583,0.72011 -1.56958,1.48148 -2.35352,2.27701c-0.7999,0.81172 -1.60556,1.64789 -3.18933,3.41866c-0.80783,0.90321 -1.60535,1.83662 -2.40451,2.79001c-0.81024,0.96658 -1.61935,1.95757 -2.43149,2.97c-0.82425,1.02754 -1.65469,2.07584 -3.33066,4.23999c-0.85809,1.10805 -1.72318,2.24097 -2.604,3.3945c-0.89783,1.1758 -1.81201,2.37685 -2.74802,3.6015c-0.95667,1.25169 -1.9335,2.53334 -3.98132,5.17067c-1.06149,1.36708 -2.15588,2.758 -3.26251,4.185c-1.12677,1.45297 -2.26547,2.93468 -3.39749,4.455c-1.14639,1.53963 -2.31171,3.09386 -4.50665,6.36c-1.10974,1.65135 -2.17151,3.34845 -3.21451,5.067c-1.04639,1.72417 -2.0629,3.47092 -3.06149,5.229c-0.99774,1.75661 -1.9765,3.51875 -3.89069,7.03732c-0.94836,1.74326 -1.88229,3.47942 -2.80048,5.2095c-0.91245,1.71927 -1.80923,3.4335 -2.6835,5.1465c-0.86935,1.70335 -1.73428,3.39806 -3.34933,6.81067c-0.80176,1.69415 -1.56729,3.39412 -2.31,5.091c-0.73727,1.68451 -1.4465,3.36465 -2.13,5.037c-0.67645,1.65504 -1.33685,3.29492 -2.56,6.53867c-0.59827,1.58656 -1.16489,3.15561 -1.71002,4.70099c-0.53479,1.51599 -1.04425,3.00591 -1.53,4.46701c-0.47418,1.42628 -0.93155,2.81773 -1.75998,5.49866c-0.39536,1.27948 -0.76697,2.52702 -1.1055,3.75151c-0.332,1.20093 -0.63629,2.39148 -0.8985,3.58049c-0.26144,1.18547 -0.51807,2.37886 -0.82935,4.83467c-0.15991,1.26147 -0.25488,2.55399 -0.32849,3.867c-0.07455,1.32974 -0.11502,2.67453 -0.1395,4.02899c-0.02457,1.36026 -0.03,2.72266 -0.03201,5.43735c-0.00098,1.34482 0,2.67865 0,4.00049c0,1.30884 0,2.60367 0,3.88351c0,1.26382 0,2.51065 0,4.94931c0,1.19067 0,2.36536 0,3.52802c0,1.15466 0,2.30533 0,3.45599c0,1.15466 -0.00049,2.31732 0,4.68268c0.00024,1.20898 -0.00049,2.43201 0.01349,3.66299c0.01401,1.23306 0.03961,2.4624 0.09451,3.681c0.05423,1.20346 0.09723,2.39005 0.392,4.65601c0.14096,1.08359 0.34116,2.12613 0.58951,3.12448c0.24164,0.97125 0.53467,1.90463 0.88651,2.7915c0.34509,0.86984 0.70639,1.72821 1.69064,3.25067c0.48859,0.75574 1.05902,1.4527 1.65302,2.11951c0.5903,0.66269 1.21497,1.28378 1.85098,1.8765c0.62619,0.58359 1.25934,1.13486 2.496,2.17065c0.5878,0.49231 1.1575,0.96048 1.71002,1.401c0.52762,0.42065 1.03564,0.81335 1.53,1.16702c0.46597,0.33337 0.90079,0.65677 1.75998,1.09866c0.38263,0.19681 0.76053,0.33713 1.1235,0.43799c0.34555,0.09601 0.68814,0.1532 1.02451,0.186c0.33282,0.03247 0.66797,0.03998 1.35199,0.04266c0.35516,0.00137 0.72134,0 1.09952,0c0.39117,0 0.79633,0 1.21649,0c0.43616,0 0.88934,0 1.85068,0c0.50998,0 1.03998,0 1.59,0c0.57001,0 1.16,0 1.76999,0c0.63,0 1.28,0.00034 2.64001,0c0.71048,-0.00018 1.44403,0.00012 2.20349,-0.009c0.78854,-0.00946 1.60919,-0.02756 2.46451,-0.06299c0.89374,-0.03702 1.8298,-0.07773 3.832,-0.26135c1.07526,-0.0986 2.19409,-0.23267 3.35248,-0.3855c1.19501,-0.15765 2.41916,-0.33844 3.66751,-0.53848c1.27002,-0.20352 2.55615,-0.41562 5.14667,-0.90933c1.30197,-0.24814 2.60611,-0.5159 3.91351,-0.81302c1.32068,-0.30014 2.65268,-0.63205 3.99448,-1.01099c1.3674,-0.38617 2.76547,-0.78928 5.59201,-1.84268c1.47418,-0.54941 2.96231,-1.18338 4.47601,-1.85699c1.54785,-0.68881 3.11069,-1.42776 4.69199,-2.19901c1.60608,-0.78333 3.22519,-1.59515 6.49866,-3.27731c1.65579,-0.85089 3.31271,-1.7135 4.9635,-2.586c1.64389,-0.86884 3.26901,-1.74127 4.8645,-2.62201c1.57013,-0.86673 3.11148,-1.71317 6.00534,-3.45868c1.37881,-0.83167 2.6904,-1.6723 3.948,-2.505c1.2196,-0.80756 2.38907,-1.61475 3.51599,-2.41498c1.0983,-0.77991 2.1619,-1.55392 4.20267,-3.08002c0.99207,-0.74185 1.95981,-1.4772 2.90552,-2.2005c0.92493,-0.7074 1.82471,-1.40231 2.69849,-2.0835c0.84985,-0.66254 1.67383,-1.30673 3.22934,-2.54932c0.73648,-0.58832 1.44193,-1.159 2.11499,-1.71451c0.64688,-0.53391 1.26309,-1.0528 1.845,-1.56149c0.55798,-0.48779 1.09457,-0.95441 2.04001,-1.89069c0.44241,-0.43811 0.84741,-0.87692 1.22849,-1.30499c0.36685,-0.41208 0.71014,-0.81909 1.03952,-1.215c0.31958,-0.38412 0.6221,-0.76501 1.23199,-1.48001c0.29681,-0.34793 0.59879,-0.68271 0.89099,-1.01849c0.28912,-0.33224 0.57303,-0.66458 0.83701,-1.00949c0.2634,-0.34418 0.53403,-0.69022 0.93866,-1.47202c0.20782,-0.40158 0.37189,-0.83768 0.52802,-1.28998c0.16144,-0.46771 0.30618,-0.95978 0.45599,-1.47c0.15555,-0.52975 0.30228,-1.08487 0.68268,-2.24002c0.20172,-0.61252 0.43408,-1.23987 0.681,-1.8855c0.25433,-0.6651 0.52631,-1.34406 0.80698,-2.03848c0.28665,-0.70926 0.58563,-1.42896 1.17868,-2.90933c0.30185,-0.75345 0.59961,-1.51379 0.89099,-2.27701c0.28998,-0.75949 0.5705,-1.51355 0.83701,-2.259c0.26074,-0.72925 0.51563,-1.43814 0.93866,-2.79733c0.19702,-0.63297 0.36554,-1.23923 0.51901,-1.815c0.14505,-0.54425 0.27295,-1.05994 0.39301,-1.54498c0.11261,-0.45496 0.20776,-0.883 0.42133,-1.64001c0.095,-0.33673 0.19611,-0.64355 0.2955,-0.924c0.09149,-0.25818 0.18365,-0.49268 0.26849,-0.70801l0.07883,-0.19733l0.07184,-0.18134" id="svg_6" stroke-width="5" stroke="#000000" fill="none"/>
  <path d="m437,240c8.33334,0.16667 9.24341,0.2182 10.172,0.28534c0.94708,0.06847 1.91083,0.14885 2.8905,0.23549c0.995,0.088 2.00369,0.18326 3.02551,0.2805c2.07874,0.19783 3.13281,0.29868 4.19199,0.39867c1.05917,0.10001 2.1134,0.19928 3.1575,0.3c1.02924,0.09929 2.03857,0.19749 3.02249,0.3c1.87384,0.19524 2.75409,0.29793 3.59735,0.39999c0.80972,0.09801 1.5882,0.1983 2.3385,0.3c0.72571,0.09837 1.42923,0.19833 2.11349,0.3c1.32449,0.19679 1.96872,0.29872 2.60001,0.39999c0.61569,0.09875 1.21237,0.19778 1.7865,0.3c0.54987,0.0979 1.07217,0.19427 1.56149,0.3c0.87827,0.18976 1.25851,0.29352 1.60132,0.39867c0.86301,0.26471 1.935,0.68231 2.74133,0.76534c0.79657,0.08203 1.80902,0.036 2.47202,0.036c1.06134,0 2.03784,0 2.74884,0c0.73099,0 1.8125,0 2.8175,0c0.62,0 1.47498,0 2.47498,0c0.84,0 1.93851,0 2.65601,0c1.07199,0 1.69733,0 2.48267,0c1.548,0 2.17599,-0.00076 2.85199,0.00133c0.71201,0.0022 1.44806,0.00684 2.19601,0.0195c0.74805,0.01266 1.48669,-0.00513 3.5,0.14584c0.57202,0.04289 1.5593,0.17381 2.375,0.33333c0.7001,0.13692 1.92316,0.39415 2.51599,0.44284c0.83548,0.06862 1.96582,0.05733 2.74286,0.11432l0.53546,0.65884" id="svg_7" stroke-width="5" stroke="#000000" fill="none"/>
  <path d="m497,248c0,3.9655 0,4.9985 0,5.57201c0,0.61549 0,1.276 0,1.9845c0,0.75951 0.00049,2.4435 -0.00015,3.373c-0.00067,0.98648 -0.00256,2.02701 -0.01053,3.1185c-0.0083,1.1395 -0.02225,2.32407 -0.04648,3.55051c-0.02499,1.26556 -0.10559,3.90164 -0.16434,5.26566c-0.05984,1.38934 -0.13297,2.79849 -0.21451,4.2225c-0.08212,1.43433 -0.173,2.87344 -0.26849,4.3125c-0.09518,1.4343 -0.2948,4.26755 -0.39551,5.65765c-0.09933,1.37125 -0.19937,2.72437 -0.29999,4.06052c-0.0994,1.32019 -0.19952,2.62537 -0.30002,3.9165c-0.09949,1.2782 -0.30014,3.7995 -0.39981,5.04483c-0.099,1.23734 -0.1976,2.46851 -0.28952,3.69598c-0.09174,1.22519 -0.17825,2.45047 -0.25348,3.67801c-0.07544,1.23111 -0.19504,3.71384 -0.23569,4.9675c-0.04068,1.25433 -0.06717,2.50098 -0.08548,3.7305c-0.01794,1.20346 -0.02676,2.37201 -0.03152,3.49649c-0.00452,1.0715 -0.00449,3.0195 -0.00449,3.88086c0,0.78931 0,1.51465 0,2.18399c0,0.62134 0,1.20267 0,1.75198c0,0.52533 0,1.53601 0,2.03568c0,0.49768 0,0.99133 0,1.479c0,0.47968 0,0.94934 0,1.40701c0,0.44366 0,1.28098 0,1.67114c0,0.37119 0,0.72433 0,1.06052c0,0.32016 0,0.62534 0,0.9165c0,0.27817 0,0.7995 0,1.04498c0,0.23849 0,0.47299 0,0.70651c0,0.2355 0,0.47598 0,0.72449c0,0.25952 0,0.82352 0,1.13367c0,0.33118 0,0.68433 0,1.06052c0,0.40015 0,0.82532 0,1.27649c0,0.47818 0.00095,1.5195 -0.00034,2.08401c-0.00134,0.59149 -0.00494,1.20709 -0.021,1.84348c-0.01651,0.65463 -0.04407,1.32443 -0.09299,2.00552c-0.04965,0.69101 -0.21072,2.08783 -0.32834,2.78549c-0.1171,0.69443 -0.25812,1.375 -0.40802,2.03699c-0.14493,0.64001 -0.29865,1.24802 -0.444,1.82101l-0.13733,0.53101" id="svg_8" stroke-width="5" stroke="#000000" fill="none"/>
  <path d="m348,610c-0.76166,0 -1.65717,0.00452 -2.40451,0.05719l-0.99283,0.22815l-0.73065,0.32532" id="svg_9" stroke-width="5" stroke="#000000" fill="none"/>
 </g>
</svg>